# AST/ASF file generated using VICON BodyLanguage
# -----------------------------------------------
:version 1.10
:name VICON
:units
  mass 1.0
  length 0.45
  angle deg
:documentation
   .ast/.asf automatically generated from VICON data using
   VICON BodyBuilder and BodyLanguage model FoxedUp or BRILLIANT.MOD
:root
   order TX TY TZ RX RY RZ
   axis XYZ
   position 0 0 0  
   orientation 0 0 0 
:bonedata
  begin
     id 1 
     name lhipjoint
     direction 0.597014 -0.743513 0.301268 
     length 2.48253 
     axis 0 0 0  XYZ
  end
  begin
     id 2 
     name lfemur
     direction 0.34202 -0.939693 0  
     length 7.51389  
     axis 0 0 20  XYZ
    dof rx ry rz
    limits (-160.0 20.0)
           (-70.0 70.0)
           (-60.0 70.0)
  end
  begin
     id 3 
     name ltibia
     direction 0.34202 -0.939693 0   
     length 7.54147   
     axis 0 0 20   XYZ
    dof rx
    limits (-10.0 170.0)
  end
  begin
     id 4 
     name lfoot
     direction 0.10378 -0.285133 0.952853   
     length 2.2132   
     axis -90 7.62852e-016 20   XYZ
    dof rx rz
    limits (-45.0 90.0)
           (-70.0 20.0)
  end
  begin
     id 5 
     name ltoes
     direction 1.5354e-011 -4.2171e-011 1   
     length 1.10362   
     axis -90 7.62852e-016 20   XYZ
    dof rx
    limits (-90.0 20.0)
  end
  begin
     id 6 
     name rhipjoint
     direction -0.591912 -0.747009 0.302685   
     length 2.47092  
     axis 0 0 0  XYZ 
  end
  begin
     id 7 
     name rfemur
     direction -0.34202 -0.939693 0   
     length 7.69991   
     axis 0 0 -20   XYZ
    dof rx ry rz
    limits (-160.0 20.0)
           (-70.0 70.0)
           (-70.0 60.0)
  end
  begin
     id 8 
     name rtibia
     direction -0.34202 -0.939693 0   
     length 7.40774   
     axis 0 0 -20   XYZ
    dof rx
    limits (-10.0 170.0)
 end
 begin
     id 9 
     name rfoot
     direction -0.0916245 -0.251736 0.963449   
     length 2.08235  
     axis -90 -7.62852e-016 -20   XYZ
    dof rx rz
    limits (-45.0 90.0)
           (-20.0 70.0)
  end
  begin
     id 10 
     name rtoes
     direction -1.53527e-011 -4.21878e-011 1   
     length 1.04369   
     axis -90 -7.62852e-016 -20   XYZ
    dof rx
    limits (-90.0 20.0)
  end
  begin
     id 11 
     name lowerback
     direction -0.0122523 0.991496 -0.12956   
     length 2.10814   
     axis 0 0 0   XYZ
    dof rx ry rz
    limits (-20.0 45.0)
           (-30.0 30.0)
           (-30.0 30.0)
  end
  begin
     id 12 
     name upperback
     direction 0.012378 0.999784 -0.0167122   
     length 2.11728   
     axis 0 0 0   XYZ
    dof rx ry rz
    limits (-20.0 45.0)
           (-30.0 30.0)
           (-30.0 30.0)
  end
  begin
     id 13 
     name thorax
     direction 0.0187236 0.998893 0.0431542   
     length 2.15267   
     axis 0 0 0   XYZ
    dof rx ry rz
    limits (-20.0 45.0)
           (-30.0 30.0)
           (-30.0 30.0)
  end
  begin
     id 14 
     name lowerneck
     direction 0.0165467 0.987304 0.157979   
     length 1.72129   
     axis 0 0 0   XYZ
    dof rx ry rz
    limits (-20.0 45.0)
           (-30.0 30.0)
           (-30.0 30.0)
  end
  begin
     id 15 
     name upperneck
     direction -0.0560236 0.986819 -0.151818   
     length 1.75382   
     axis 0 0 0   XYZ
    dof rx ry rz
    limits (-20.0 45.0)
           (-30.0 30.0)
           (-30.0 30.0)
  end
  begin
     id 16
     name head
     direction -0.0173602 0.99745 -0.0692312  
     length 1.76328  
     axis 0 0 0   XYZ
    dof rx ry rz
    limits (-20.0 45.0)
           (-30.0 30.0)
           (-30.0 30.0)
  end
  begin
     id 17 
     name lclavicle
     direction 0.957734 0.271724 -0.094399  
     length 3.5782  
     axis 0 0 0   XYZ
    dof ry rz
    limits (-20.0 10.0)
           (0.0 20.0)
  end
  begin
     id 18 
     name lhumerus
     direction 1 -4.48963e-011 1.21581e-027   
     length 5.25525   
     axis 180 -30 -90   XYZ
    dof rx ry rz
    limits (-60.0 90.0)
           (-90.0 90.0)
           (-90.0 90.0)
  end
  begin
     id 19
     name lradius
     direction 1 -4.48975e-011 3.71216e-028   
     length 3.35106   
     axis 180 -30 -90   XYZ
    dof rx
    limits (-10.0 170.0)
  end
  begin
     id 20
     name lwrist
     direction 1 -4.48957e-011 4.76535e-027   
     length 1.67553   
     axis -3.27501e-015 90 90   XYZ
    dof ry
    limits (-180.0 0.0)
 end
  begin
     id 21 
     name lhand
     direction 1 -4.49008e-011 9.52727e-027   
     length 0.574153   
     axis -6.08097e-015 90 90   XYZ
    dof rx rz
    limits (-90.0 90.0)
           (-45.0 45.0)
  end
  begin
     id 22 
     name lfingers
     direction 1 -4.48996e-011 1.90562e-026   
     length 0.462897   
     axis -1.21618e-014 90 90   XYZ
    dof rx
    limits (0.0 90.0)
  end
  begin
     id 23
     name lthumb
     direction 0.707107 -6.34908e-011 0.707107   
     length 0.66463   
     axis -90 45 -1.62303e-014   XYZ
    dof rx rz
    limits (-45.0 45.0)
           (-45.0 45.0)
  end
  begin
     id 24 
     name rclavicle
     direction -0.950439 0.29623 -0.0944132   
     length 3.45861  
     axis 0 0 0   XYZ 
    dof ry rz
    limits (-10.0 20.0)
           (-20.0 0.0)
  end
  begin
     id 25 
     name rhumerus
     direction -1 -4.48986e-011 1.25473e-027  
     length 5.33104   
     axis 180 30 90   XYZ
    dof rx ry rz
    limits (-90.0 60.0)
           (-90.0 90.0)
           (-90.0 90.0)
  end
  begin
     id 26 
     name rradius
     direction -1 -4.4894e-011 1.66273e-027   
     length 3.39883   
     axis 180 30 90   XYZ
    dof rx
    limits (-10.0 170.0)
  end
  begin
     id 27 
     name rwrist
     direction -1 -4.48946e-011 4.76572e-027   
     length 1.69941   
     axis -3.27501e-015 -90 -90   XYZ
    dof ry
    limits (-180.0 0.0)
  end
  begin
     id 28
     name rhand
     direction -1 -4.49028e-011 9.52595e-027   
     length 0.913886   
     axis -6.08097e-015 -90 -90   XYZ
    dof rx rz
    limits (-90.0 90.0)
           (-45.0 45.0)
  end
  begin
     id 29
     name rfingers
     direction -1 -4.48945e-011 1.9063e-026   
     length 0.736798   
     axis -1.21618e-014 -90 -90   XYZ
    dof rx
    limits (0.0 90.0)
  end
  begin
     id 30
     name rthumb
     direction -0.707107 -6.34966e-011 0.707107   
     length 1.0579   
     axis -90 -45 1.62303e-014   XYZ
    dof rx rz
    limits (-45.0 45.0)
           (-45.0 45.0)
  end
:hierarchy
  begin
    root lhipjoint rhipjoint lowerback
    lhipjoint lfemur
    lfemur ltibia
    ltibia lfoot
    lfoot ltoes
    rhipjoint rfemur
    rfemur rtibia
    rtibia rfoot
    rfoot rtoes
    lowerback upperback
    upperback thorax
    thorax lowerneck lclavicle rclavicle
    lowerneck upperneck
    upperneck head
    lclavicle lhumerus
    lhumerus lradius
    lradius lwrist
    lwrist lhand lthumb
    lhand lfingers
    rclavicle rhumerus
    rhumerus rradius
    rradius rwrist
    rwrist rhand rthumb
    rhand rfingers
  end

#!OML:ASF F:\VICON\USERDATA\INSTALL\rory3\rory3.ASF
:FULLY-SPECIFIED
:DEGREES
2113
root -4.71476 17.2501 41.4089 175.407 -13.0671 -181.908
lowerback 11.6768 -0.918493 -4.07768
upperback 1.6387 -1.87872 0.177945
thorax -4.6951 -0.9215 2.78068
lowerneck -22.8357 3.08547 4.11053
upperneck 18.5621 4.4491 -7.27809
head 9.93464 1.4094 -2.58833
rclavicle 1.47598e-014 -1.68967e-015
rhumerus -10.7762 8.77543 -83.7586
rradius 88.4697
rwrist -2.44227
rhand -11.9338 6.39832
rfingers 7.12502
rthumb 14.1208 -23.1019
lclavicle 1.47598e-014 -1.68967e-015
lhumerus -17.8558 -14.6889 93.6097
lradius 75.4881
lwrist 13.097
lhand -10.3113 25.0649
lfingers 7.12502
lthumb 15.6839 54.4493
rfemur -16.4686 -3.10842 12.3389
rtibia 40.6217
rfoot -13.9879 -9.69995
rtoes 5.63572
lfemur -4.40019 -5.40511 -25.9364
ltibia 37.1833
lfoot -20.8055 0.753188
ltoes -8.56141
2114
root -4.69536 17.2469 41.4047 175.55 -13.2611 -181.967
lowerback 11.642 -0.990739 -4.16541
upperback 1.742 -1.98233 0.285477
thorax -4.55262 -0.978289 2.95524
lowerneck -23.0958 3.13906 3.92044
upperneck 18.057 4.58331 -7.37966
head 9.80934 1.45163 -2.56436
rclavicle -2.48419e-014 -4.27387e-015
rhumerus -9.23337 9.50169 -83.105
rradius 89.4471
rwrist -2.8062
rhand -11.7148 6.23676
rfingers 7.12502
rthumb 14.3318 -23.2486
lclavicle -2.48419e-014 -4.27387e-015
lhumerus -16.5411 -14.9859 93.5263
lradius 76.8356
lwrist 12.807
lhand -10.631 25.3045
lfingers 7.12502
lthumb 15.3759 54.7127
rfemur -16.6724 -3.4363 12.3512
rtibia 40.7883
rfoot -13.7752 -9.86095
rtoes 4.18668
lfemur -4.624 -5.20771 -25.8886
ltibia 37.1311
lfoot -20.6563 0.316547
ltoes -5.78485
2115
root -4.67699 17.2445 41.4012 175.585 -13.3489 -181.957
lowerback 11.5798 -1.05037 -4.06365
upperback 1.87597 -2.05343 0.255315
thorax -4.37672 -1.02555 2.87198
lowerneck -23.2751 3.22042 3.91759
upperneck 17.5521 4.66445 -7.33278
head 9.66586 1.50587 -2.52683
rclavicle -5.14852e-014 -4.77083e-015
rhumerus -7.73936 10.2626 -82.7692
rradius 90.3112
rwrist -3.83878
rhand -12.1608 6.22596
rfingers 7.12502
rthumb 13.9021 -23.2893
lclavicle -5.14852e-014 -4.77083e-015
lhumerus -15.0557 -15.4676 93.0473
lradius 78.1685
lwrist 12.657
lhand -11.1195 25.3506
lfingers 7.12502
lthumb 14.9053 54.7943
rfemur -16.7325 -3.54394 12.4323
rtibia 40.8837
rfoot -13.6126 -9.88899
rtoes 3.25912
lfemur -4.72845 -5.43398 -25.7809
ltibia 37.1322
lfoot -20.3534 0.70242
ltoes -13.3284
2116
root -4.66254 17.2452 41.4008 175.515 -13.4119 -181.963
lowerback 11.4406 -0.942672 -3.62119
upperback 2.09976 -1.87829 -0.0834875
thorax -4.10501 -0.963395 2.23476
lowerneck -23.1733 3.13682 4.35768
upperneck 16.848 4.37436 -7.29869
head 9.38963 1.43092 -2.62113
rclavicle -7.90014e-015 4.09993e-015
rhumerus -6.10518 10.1396 -82.5574
rradius 91.1054
rwrist -4.76071
rhand -12.3357 6.56066
rfingers 7.12502
rthumb 13.7334 -22.9661
lclavicle -7.90014e-015 4.09993e-015
lhumerus -13.1922 -16.7108 92.2195
lradius 79.2977
lwrist 12.4355
lhand -11.0971 25.165
lfingers 7.12502
lthumb 14.9269 54.6071
rfemur -16.6671 -3.62805 12.485
rtibia 40.8936
rfoot -13.8867 -9.97099
rtoes 3.31515
lfemur -4.70119 -5.52234 -25.7172
ltibia 37.2023
lfoot -20.3639 0.462933
ltoes -11.8891
2117
root -4.6496 17.246 41.3959 175.553 -13.5738 -182.037
lowerback 11.5732 -0.988509 -3.57129
upperback 2.0978 -1.94009 -0.0792707
thorax -4.17798 -0.993634 2.22412
lowerneck -23.2466 3.14934 4.0743
upperneck 16.3499 4.42764 -7.15544
head 9.22167 1.46176 -2.5102
rclavicle 2.80783e-014 -6.4605e-015
rhumerus -4.43641 10.7891 -81.8602
rradius 91.9422
rwrist -5.38938
rhand -12.0333 6.70145
rfingers 7.12502
rthumb 14.0249 -22.8054
lclavicle 2.80783e-014 -6.4605e-015
lhumerus -11.2699 -17.2155 91.6471
lradius 80.3501
lwrist 12.0474
lhand -11.3218 25.3756
lfingers 7.12502
lthumb 14.7105 54.8337
rfemur -16.6291 -3.6701 12.449
rtibia 40.8539
rfoot -13.7922 -10.1316
rtoes 2.75183
lfemur -4.73127 -5.3843 -25.7194
ltibia 37.3088
lfoot -20.6148 -0.310073
ltoes -2.04841
2118
root -4.64092 17.2497 41.3947 175.712 -13.7106 -182.148
lowerback 11.5004 -1.00046 -3.62126
upperback 2.14242 -1.9583 -0.0446876
thorax -4.087 -1.00523 2.28788
lowerneck -23.6401 3.07381 3.86961
upperneck 16.0481 4.36294 -7.15163
head 9.17621 1.41577 -2.4809
rclavicle -5.11436e-014 4.12478e-015
rhumerus -2.5651 11.4924 -80.9152
rradius 92.7081
rwrist -5.9109
rhand -12.1916 7.20297
rfingers 7.12502
rthumb 13.8723 -22.3144
lclavicle -5.11436e-014 4.12478e-015
lhumerus -9.08024 -17.6864 90.9828
lradius 81.3412
lwrist 11.4031
lhand -11.8656 25.0122
lfingers 7.12502
lthumb 14.1865 54.5078
rfemur -16.7071 -3.63275 12.3649
rtibia 40.7799
rfoot -13.658 -10.3192
rtoes 2.23243
lfemur -4.90949 -5.4087 -25.7716
ltibia 37.4522
lfoot -20.4253 0.176769
ltoes -12.1005
2119
root -4.62863 17.2513 41.396 175.782 -13.8582 -182.29
lowerback 11.7405 -0.950257 -3.67801
upperback 1.80806 -1.89589 -0.0696854
thorax -4.5729 -0.949361 2.29784
lowerneck -22.7898 2.96877 3.85366
upperneck 15.4948 4.23844 -7.30119
head 8.83557 1.36456 -2.54496
rclavicle -1.45175e-014 -6.95746e-016
rhumerus -1.41979 12.0513 -80.0623
rradius 93.3672
rwrist -6.05641
rhand -12.3026 7.66083
rfingers 7.12502
rthumb 13.7654 -21.8638
lclavicle -1.45175e-014 -6.95746e-016
lhumerus -7.43513 -18.3536 90.4414
lradius 82.2905
lwrist 10.6019
lhand -12.0488 24.3902
lfingers 7.12502
lthumb 14.01 53.8981
rfemur -16.7189 -3.53354 12.2491
rtibia 40.7475
rfoot -13.6888 -10.5342
rtoes 2.25469
lfemur -5.02605 -5.42819 -25.8806
ltibia 37.5682
lfoot -20.3438 0.35068
ltoes -15.1976
2120
root -4.61868 17.2511 41.3977 175.728 -13.8225 -182.033
lowerback 12.0797 -0.926515 -3.36056
upperback 1.55957 -1.82419 0.00312729
thorax -5.03365 -0.899583 2.1986
lowerneck -22.5291 2.97404 3.98126
upperneck 15.1335 4.22781 -7.50429
head 8.67496 1.35514 -2.63451
rclavicle 2.20216e-014 -8.15017e-015
rhumerus 0.227609 12.735 -79.1265
rradius 93.9729
rwrist -6.03801
rhand -12.5699 7.64888
rfingers 7.12502
rthumb 13.5078 -21.893
lclavicle 2.20216e-014 -8.15017e-015
lhumerus -5.41268 -18.7948 89.638
lradius 83.395
lwrist 9.81011
lhand -12.635 24.6717
lfingers 7.12502
lthumb 13.445 54.2177
rfemur -16.747 -3.3534 12.582
rtibia 40.7488
rfoot -13.8438 -10.6653
rtoes 3.26983
lfemur -5.11598 -5.32313 -25.5578
ltibia 37.6611
lfoot -20.3647 0.357142
ltoes -15.7278
2121
root -4.61131 17.254 41.4044 175.692 -13.8462 -181.971
lowerback 12.0869 -0.991506 -3.18159
upperback 1.69799 -1.89161 0.0457739
thorax -4.89226 -0.944331 2.15098
lowerneck -23.0373 3.09108 3.84664
upperneck 14.8316 4.41075 -7.58078
head 8.66958 1.41608 -2.60905
rclavicle 1.37099e-014 -3.97569e-015
rhumerus 2.69695 13.4565 -78.0519
rradius 94.5848
rwrist -5.63244
rhand -12.7512 7.51612
rfingers 7.12502
rthumb 13.333 -22.0373
lclavicle 1.37099e-014 -3.97569e-015
lhumerus -2.61852 -18.8808 88.4455
lradius 84.4018
lwrist 9.08645
lhand -13.2124 24.2307
lfingers 7.12502
lthumb 12.8884 53.8127
rfemur -16.7934 -3.38042 12.6759
rtibia 40.7961
rfoot -14.1081 -10.6503
rtoes 4.59019
lfemur -5.14908 -5.37967 -25.4923
ltibia 37.7189
lfoot -20.3845 0.443809
ltoes -16.1907
2122
root -4.60389 17.2551 41.4097 175.664 -13.9961 -181.986
lowerback 12.0521 -1.05171 -3.13115
upperback 1.82169 -1.9692 0.0556115
thorax -4.73989 -0.991456 2.1417
lowerneck -23.4874 3.10273 3.64571
upperneck 14.5733 4.43739 -7.45082
head 8.65076 1.42549 -2.52426
rclavicle -7.17488e-015 4.17448e-015
rhumerus 5.27717 13.9097 -76.9818
rradius 95.1177
rwrist -4.87241
rhand -12.6669 7.02786
rfingers 7.12502
rthumb 13.4143 -22.5202
lclavicle -7.17488e-015 4.17448e-015
lhumerus 0.334971 -18.9204 87.1492
lradius 85.6166
lwrist 9.68221
lhand -12.6588 24.5693
lfingers 7.12502
lthumb 13.4221 54.1169
rfemur -16.7792 -3.48341 12.6783
rtibia 40.8368
rfoot -14.2247 -10.7858
rtoes 4.27671
lfemur -5.18969 -5.50376 -25.5088
ltibia 37.7824
lfoot -20.3759 0.236491
ltoes -13.0694
2123
root -4.59688 17.2538 41.4165 175.584 -14.1491 -182.017
lowerback 12.0782 -1.07715 -3.02489
upperback 1.88045 -1.99977 -0.0492954
thorax -4.69836 -1.01268 1.97663
lowerneck -23.584 3.12914 3.89534
upperneck 14.2013 4.39642 -7.61734
head 8.54744 1.40652 -2.62476
rclavicle -1.73315e-015 -2.48481e-015
rhumerus 7.85996 13.982 -76.0831
rradius 95.5227
rwrist -4.75052
rhand -12.1291 6.62421
rfingers 7.12502
rthumb 13.9326 -22.889
lclavicle -1.73315e-015 -2.48481e-015
lhumerus 3.25601 -19.1517 85.5783
lradius 86.6299
lwrist 10.3739
lhand -11.9752 25.2928
lfingers 7.12502
lthumb 14.0809 54.7958
rfemur -16.7043 -3.52207 12.6384
rtibia 40.8935
rfoot -14.4049 -10.8364
rtoes 5.2055
lfemur -5.13243 -5.6731 -25.5527
ltibia 37.7998
lfoot -20.4938 -0.524066
ltoes -1.93532
2124
root -4.58788 17.2504 41.4267 175.534 -14.2759 -182.009
lowerback 12.2278 -1.05448 -3.02845
upperback 1.80799 -1.97041 -0.00148769
thorax -4.85693 -0.992302 2.03013
lowerneck -23.5695 3.06683 3.7501
upperneck 13.8518 4.32864 -7.60641
head 8.41845 1.37196 -2.60421
rclavicle -1.41075e-014 2.5842e-015
rhumerus 10.3739 13.9458 -74.8357
rradius 95.7453
rwrist -5.14236
rhand -11.7607 7.03848
rfingers 7.12502
rthumb 14.2876 -22.45
lclavicle -1.41075e-014 2.5842e-015
lhumerus 6.16895 -19.3005 84.24
lradius 87.509
lwrist 10.4948
lhand -14.0069 25.1372
lfingers 7.12502
lthumb 12.1224 54.766
rfemur -16.6882 -3.4951 12.649
rtibia 40.9298
rfoot -14.538 -10.8984
rtoes 5.97954
lfemur -5.1258 -5.75864 -25.5317
ltibia 37.7824
lfoot -20.2792 0.164831
ltoes -11.7579
2125
root -4.57936 17.2517 41.4355 175.579 -14.4125 -182.19
lowerback 12.1913 -1.03795 -3.26858
upperback 1.76433 -1.97715 -0.0179618
thorax -4.8749 -0.989295 2.1488
lowerneck -23.427 3.07163 3.74873
upperneck 13.4416 4.30684 -7.59288
head 8.25365 1.37262 -2.59921
rclavicle 3.31598e-014 -6.85807e-015
rhumerus 12.7918 13.8909 -73.6502
rradius 95.9247
rwrist -5.66109
rhand -11.6361 7.36864
rfingers 7.12502
rthumb 14.4076 -22.1113
lclavicle 3.31598e-014 -6.85807e-015
lhumerus 9.10807 -19.3013 82.8283
lradius 88.3715
lwrist 10.2383
lhand -15.4516 25.0194
lfingers 7.12502
lthumb 10.7291 54.7255
rfemur -16.7298 -3.4537 12.453
rtibia 40.9292
rfoot -14.4717 -10.9892
rtoes 6.38985
lfemur -5.15346 -5.71936 -25.6894
ltibia 37.7195
lfoot -20.1204 0.333857
ltoes -15.9016
2126
root -4.57628 17.2564 41.4458 175.646 -14.5513 -182.285
lowerback 12.2001 -1.0514 -3.47154
upperback 1.70312 -2.01372 0.0697321
thorax -4.9318 -0.999002 2.36215
lowerneck -23.5738 3.04654 3.55472
upperneck 13.2295 4.31333 -7.61576
head 8.20362 1.3592 -2.57316
rclavicle 6.59717e-015 -2.38542e-015
rhumerus 14.9441 13.9524 -72.4569
rradius 96.3537
rwrist -6.2025
rhand -12.2016 7.08562
rfingers 7.12502
rthumb 13.8627 -22.4324
lclavicle 6.59717e-015 -2.38542e-015
lhumerus 12.2887 -18.9332 81.4838
lradius 89.0538
lwrist 9.86424
lhand -16.0851 25.1135
lfingers 7.12502
lthumb 10.1181 54.8502
rfemur -16.786 -3.48209 12.346
rtibia 40.8883
rfoot -14.3682 -11.155
rtoes 5.65457
lfemur -5.22192 -5.65501 -25.735
ltibia 37.6287
lfoot -19.9511 0.0552718
ltoes -14.9645
2127
root -4.57378 17.2639 41.4557 175.623 -14.603 -182.128
lowerback 12.1541 -1.12095 -3.38402
upperback 1.66706 -2.08378 0.167295
thorax -4.93893 -1.03191 2.42523
lowerneck -23.524 3.06582 3.5088
upperneck 12.7386 4.32185 -7.66304
head 8.0308 1.36186 -2.57737
rclavicle -1.52816e-015 -1.03368e-014
rhumerus 17.2336 14.0585 -71.4246
rradius 96.5367
rwrist -6.94865
rhand -12.9211 6.75392
rfingers 7.12502
rthumb 13.1692 -22.8102
lclavicle -1.52816e-015 -1.03368e-014
lhumerus 15.7809 -18.3119 80.0293
lradius 89.3442
lwrist 9.66468
lhand -16.6405 25.1493
lfingers 7.12502
lthumb 9.58217 54.9114
rfemur -16.7877 -3.37091 12.5178
rtibia 40.7862
rfoot -14.2667 -11.3668
rtoes 5.05062
lfemur -5.22231 -5.65193 -25.5429
ltibia 37.5344
lfoot -19.9227 -0.220033
ltoes -12.8453
